<?xml version="1.0" standalone="no"?>
<!DOCTYPE svg PUBLIC "-//W3C//DTD SVG 20010904//EN"
 "http://www.w3.org/TR/2001/REC-SVG-20010904/DTD/svg10.dtd">
<svg version="1.0" xmlns="http://www.w3.org/2000/svg"
 width="426.000000pt" height="390.000000pt" viewBox="0 0 426.000000 390.000000"
 preserveAspectRatio="xMidYMid meet">

<g transform="translate(0.000000,390.000000) scale(0.100000,-0.100000)"
fill="#000000" stroke="none">
<path d="M1925 3634 c-16 -2 -66 -9 -110 -14 -214 -28 -447 -90 -572 -154
-128 -65 -183 -129 -183 -215 0 -55 -3 -64 -109 -283 -33 -70 -61 -133 -61
-141 0 -8 13 -33 30 -55 16 -23 30 -46 30 -51 0 -6 -38 -88 -84 -183 -47 -95
-88 -185 -91 -200 -9 -34 23 -68 64 -68 28 0 29 -2 24 -38 -6 -47 16 -94 54
-117 19 -11 33 -33 44 -66 l16 -50 -43 -85 c-31 -62 -44 -103 -50 -151 -15
-141 35 -282 138 -387 55 -56 61 -59 68 -40 16 42 70 84 128 99 154 42 179 49
204 62 36 17 46 16 50 -4 2 -10 -12 -36 -32 -60 -67 -77 -130 -230 -130 -315
0 -24 -8 -28 -92 -55 l-93 -30 -3 129 c-2 109 -5 128 -19 128 -8 0 -57 -13
-107 -29 -50 -16 -138 -44 -196 -61 -58 -18 -116 -36 -130 -40 -14 -4 -65 -20
-115 -35 -49 -15 -94 -31 -99 -36 -5 -5 9 -32 32 -63 23 -30 42 -58 42 -61 0
-3 5 -11 10 -18 6 -7 35 -46 64 -87 l53 -74 -22 -36 c-12 -19 -41 -71 -64
-115 -24 -44 -62 -111 -84 -148 -53 -90 -45 -97 70 -62 48 15 102 31 118 36
17 5 58 18 92 29 34 11 67 20 73 20 6 0 10 -46 10 -124 0 -69 4 -127 9 -131 5
-3 27 1 48 9 21 8 79 27 128 42 50 14 108 32 130 40 22 7 121 38 220 69 99 31
198 62 220 70 43 14 221 70 510 160 99 31 198 62 220 70 22 7 81 25 130 41 50
15 151 46 225 70 143 45 314 99 520 164 69 21 179 56 245 77 l120 38 3 126 3
125 77 23 c182 57 202 64 202 78 0 8 -32 64 -70 125 l-70 110 35 102 c19 55
50 146 70 201 35 102 41 130 28 138 -5 3 -51 -8 -103 -25 -52 -16 -196 -59
-320 -97 l-225 -68 -3 -130 -3 -130 -52 -13 c-48 -11 -55 -10 -87 8 -90 53
-270 102 -376 102 l-52 0 -27 68 c-15 37 -35 85 -44 107 -10 25 -16 67 -15
115 0 67 4 83 40 155 66 131 105 196 156 263 89 116 118 203 118 353 0 147
-49 262 -139 324 -32 23 -33 26 -35 97 -2 85 -23 133 -86 196 -105 107 -289
168 -535 176 -60 3 -123 2 -140 0z m296 -456 c0 -10 2 -10 6 0 8 20 75 13 120
-12 l42 -25 20 27 19 27 69 -23 c37 -13 74 -26 81 -29 8 -3 12 5 12 22 l0 26
30 -18 c17 -9 30 -20 30 -24 0 -4 9 -9 21 -12 12 -3 18 -10 14 -16 -3 -6 1
-11 9 -11 9 0 16 -7 16 -15 0 -8 4 -15 9 -15 18 0 91 -153 79 -165 -2 -2 -16
7 -31 21 -15 14 -27 22 -27 19 0 -3 -8 -1 -18 4 -41 22 -175 32 -279 20 -97
-10 -131 -15 -143 -19 -3 -1 -9 -2 -14 -1 -5 1 -12 -2 -15 -6 -3 -4 -26 -18
-51 -30 -51 -25 -114 -86 -125 -121 -3 -12 -10 -20 -14 -18 -4 3 -7 -3 -7 -12
0 -9 -1 -33 -3 -52 l-2 -35 -19 41 c-32 68 -115 134 -171 134 -35 0 -84 -28
-102 -59 -27 -46 -21 -80 28 -156 45 -70 45 -70 45 -161 0 -79 3 -95 23 -120
21 -27 22 -37 22 -194 0 -137 -3 -175 -20 -225 l-19 -60 -7 69 c-12 114 -54
261 -82 291 -6 6 -7 3 -2 -10 5 -11 19 -60 32 -110 43 -161 19 -328 -60 -404
-22 -22 -42 -39 -44 -37 -2 2 2 26 8 55 6 29 9 93 7 144 -3 84 -6 97 -38 150
-19 32 -45 77 -57 100 -12 23 -22 36 -22 29 -1 -8 19 -54 44 -103 43 -85 45
-93 45 -177 0 -86 -26 -208 -50 -237 -7 -8 -27 -23 -46 -34 -29 -17 -32 -18
-24 -3 27 50 38 195 20 252 -6 18 -8 2 -9 -52 -2 -136 -55 -233 -146 -267 -27
-10 -58 -22 -69 -26 -17 -7 -17 -6 -6 15 16 29 39 126 40 162 0 42 -20 124
-36 144 -12 16 -12 14 1 -17 25 -64 15 -162 -28 -250 -30 -63 -41 -78 -64 -82
-16 -3 -30 -3 -32 -1 -2 2 4 21 13 43 20 42 29 188 14 197 -21 13 -52 103 -59
169 l-7 70 3 -85 c2 -61 8 -98 23 -130 22 -47 29 -124 12 -135 -5 -3 -7 -12
-4 -19 3 -7 -9 -41 -26 -74 -24 -46 -41 -64 -71 -78 -21 -11 -39 -26 -39 -33
0 -11 -3 -12 -11 -4 -19 19 -41 136 -35 188 4 34 2 45 -4 35 -5 -8 -10 -58
-10 -110 l0 -95 -20 25 c-54 68 -90 173 -90 260 0 60 23 137 61 208 22 41 48
60 34 25 -4 -10 -9 -58 -11 -108 -3 -85 -3 -87 6 -31 9 58 51 159 70 171 6 4
10 -22 10 -70 0 -44 6 -90 14 -108 37 -84 45 -142 25 -194 -8 -23 -8 -26 3
-15 20 20 23 143 4 198 -39 115 1 264 70 264 32 0 71 -69 88 -156 l14 -69 1
60 c0 33 -6 82 -14 109 -8 27 -14 50 -13 51 2 1 20 6 40 12 34 10 38 9 65 -21
64 -69 88 -142 80 -244 -3 -49 -2 -60 5 -42 5 14 10 61 10 106 1 67 -4 91 -26
140 -15 32 -34 66 -43 76 -14 16 -14 18 0 24 25 9 50 87 45 139 -4 31 -1 48 8
56 12 10 14 1 14 -49 0 -63 15 -105 63 -179 15 -24 27 -49 27 -58 0 -8 4 -15
8 -15 4 0 14 -17 22 -37 7 -21 15 -33 17 -26 2 6 -21 64 -51 129 -45 94 -56
127 -56 167 0 62 26 146 56 184 22 27 23 27 37 9 25 -34 69 -160 80 -231 7
-40 13 -60 15 -46 9 59 -39 270 -70 308 -7 8 -1 23 20 50 17 21 33 53 37 71 4
17 10 32 13 32 19 0 107 -183 97 -200 -3 -6 -2 -10 3 -10 5 0 18 -32 28 -72
24 -92 32 -60 9 36 -25 102 -42 150 -88 241 -60 119 -133 473 -104 502 7 7 51
18 98 23 46 6 122 14 168 20 46 5 88 7 92 4 5 -3 9 0 9 5 0 6 15 11 33 11 17
1 59 7 92 14 78 18 85 18 86 4z m-1074 -52 c27 -18 91 -54 144 -79 52 -25 103
-56 112 -69 9 -13 23 -32 31 -42 12 -18 14 -16 21 31 8 62 1 89 -34 127 l-26
29 34 -7 c18 -3 62 -6 96 -6 l62 0 7 -77 c3 -43 18 -123 32 -178 32 -123 36
-253 11 -302 -9 -17 -42 -55 -72 -85 -31 -29 -74 -76 -96 -105 l-41 -52 -26
19 c-36 25 -91 34 -121 18 -27 -15 -56 -52 -66 -85 -5 -19 -2 -22 31 -25 21
-2 42 -10 48 -20 28 -45 -43 -29 -131 30 -56 37 -66 52 -34 52 10 0 22 7 25
16 8 22 -3 62 -20 68 -11 4 -11 1 2 -19 26 -40 12 -46 -109 -44 -62 2 -133 -1
-158 -5 -32 -6 -49 -5 -53 3 -4 6 10 48 32 94 22 45 63 129 90 187 l51 105 16
-35 16 -35 -7 35 c-7 36 -30 85 -52 108 -35 38 -34 49 13 150 25 53 60 127 78
165 17 37 34 67 39 67 4 0 29 -15 55 -34z m1545 -201 c25 -9 60 -32 79 -51 33
-35 34 -37 33 -122 0 -64 -5 -96 -18 -122 -44 -85 -89 -103 -181 -75 -54 18
-57 17 -82 -1 -14 -10 -39 -45 -57 -78 -17 -32 -45 -75 -62 -95 -30 -34 -35
-36 -93 -36 -57 0 -64 2 -94 35 -45 48 -76 119 -95 217 -35 180 26 274 208
323 87 24 297 27 362 5z m-744 -139 c37 -23 66 -73 76 -126 l6 -35 -13 33
c-15 40 -53 82 -74 82 -9 0 -3 -10 15 -25 47 -39 65 -136 40 -217 -10 -36 -66
-98 -88 -98 -14 0 -19 30 -18 100 1 36 -4 75 -11 88 -11 21 -10 22 36 23 26 1
37 4 23 6 -52 8 -81 27 -110 71 -16 25 -30 53 -30 61 1 38 56 75 95 64 11 -3
35 -15 53 -27z m154 -291 c2 -11 14 -38 27 -60 13 -22 24 -45 24 -52 0 -7 3
-11 6 -9 3 2 16 -10 29 -25 l24 -29 -69 0 c-66 0 -168 22 -187 41 -10 9 42 56
57 51 5 -1 6 2 2 7 -3 6 1 21 9 33 8 13 23 52 32 86 l18 64 13 -44 c7 -23 14
-52 15 -63z m498 20 c23 -8 54 -15 69 -15 l26 -1 -35 -30 c-47 -40 -200 -111
-200 -93 0 15 86 154 95 154 1 0 22 -7 45 -15z m-65 -244 c-55 -127 -68 -184
-55 -253 10 -53 30 -111 36 -105 2 1 -3 21 -11 42 -16 44 -18 139 -5 170 6 13
7 4 3 -27 -3 -26 0 -69 6 -95 11 -47 17 -65 61 -171 12 -30 20 -56 18 -58 -2
-2 -35 -8 -74 -14 -128 -18 -214 -50 -442 -163 -243 -121 -426 -197 -470 -197
-20 1 -35 12 -58 43 -52 70 -52 79 9 106 128 58 254 164 308 257 67 118 100
285 82 426 -5 46 -9 84 -7 86 1 2 24 -4 51 -14 108 -37 344 -22 505 34 46 16
84 30 85 31 1 0 -18 -44 -42 -98z m-1134 -4 c13 -23 3 -71 -13 -61 -6 4 -8 3
-4 -4 3 -6 -4 -18 -16 -26 -15 -11 -18 -16 -7 -16 8 0 25 7 38 16 l23 16 -16
-29 c-19 -39 -75 -50 -138 -28 l-43 14 25 -19 c14 -11 28 -20 33 -20 4 0 7 -5
7 -11 0 -15 -63 -3 -112 22 -20 10 -49 36 -63 56 -14 21 -25 32 -25 24 0 -18
39 -81 51 -81 5 0 9 -4 9 -10 0 -32 -87 29 -121 84 -15 25 -19 27 -19 11 0
-11 9 -35 20 -52 24 -40 12 -42 -30 -7 -35 30 -60 73 -60 104 0 11 -4 20 -9
20 -11 0 2 -68 18 -98 17 -32 9 -36 -22 -11 -29 22 -35 57 -18 102 21 55 98
38 233 -50 82 -54 142 -72 177 -53 38 20 22 93 -25 110 -33 13 -30 30 5 30 20
0 37 -9 55 -31 14 -17 26 -29 26 -27 0 2 -4 18 -10 36 -8 30 -7 32 6 21 8 -7
20 -21 25 -32z m2409 -197 c0 -5 -8 -25 -17 -45 -15 -32 -24 -37 -117 -66
-134 -41 -146 -46 -146 -64 0 -20 10 -19 124 15 55 17 101 29 102 27 2 -2 -1
-20 -7 -41 -12 -44 -41 -76 -70 -76 -29 0 -59 -18 -59 -35 0 -18 18 -19 56 -5
15 6 29 9 31 7 2 -3 -3 -25 -12 -51 -11 -32 -13 -51 -6 -65 9 -16 5 -20 -29
-34 -22 -8 -40 -20 -40 -27 0 -19 26 -22 63 -6 35 14 36 14 52 -11 21 -31 15
-37 -57 -57 -36 -10 -58 -22 -58 -31 0 -24 14 -24 84 -3 64 19 68 20 86 3 40
-36 40 -36 -192 -102 -17 -5 -18 9 -18 194 l0 200 -102 43 c-57 23 -125 52
-151 63 l-48 21 78 24 c43 13 98 30 123 38 25 7 104 31 175 53 141 43 155 46
155 31z m-310 -490 c0 -23 -7 -98 -15 -168 -8 -70 -16 -145 -17 -166 -3 -36
-6 -40 -45 -51 l-43 -13 -5 37 c-14 84 -18 88 -27 26 -4 -33 -10 -65 -12 -72
-5 -12 -64 -28 -72 -20 -3 2 0 44 5 93 6 49 16 141 22 205 11 115 12 117 38
122 14 3 33 8 42 12 14 5 18 -4 24 -59 8 -82 25 -77 25 8 0 55 3 64 23 74 45
22 57 15 57 -28z m-245 -74 c-6 -29 -14 -38 -40 -47 -33 -12 -45 -32 -45 -77
0 -19 4 -22 23 -17 12 4 29 8 37 11 13 3 15 -4 12 -36 -4 -37 -7 -41 -43 -50
-36 -10 -39 -14 -39 -45 0 -18 -3 -41 -7 -50 -5 -15 -3 -16 15 -6 38 20 52 14
52 -23 0 -34 -1 -34 -77 -59 -43 -14 -79 -24 -81 -23 -1 2 2 36 7 77 5 41 15
134 21 207 8 80 17 135 24 137 6 1 40 12 76 23 36 11 66 19 68 17 2 -2 0 -19
-3 -39z m-195 -53 c0 -39 -9 -48 -63 -63 -33 -9 -51 -20 -56 -34 -10 -25 -34
-237 -28 -242 2 -3 11 -2 19 1 11 5 18 28 23 81 6 68 9 76 32 85 52 20 56 15
49 -58 -4 -38 -9 -88 -12 -113 l-6 -45 -61 -18 c-34 -10 -72 -23 -85 -28 -34
-13 -42 -4 -42 51 0 85 31 334 44 347 12 13 138 59 169 62 12 1 17 -6 17 -26z
m-248 -145 c-6 -51 -14 -132 -18 -180 -9 -118 -22 -138 -114 -168 -66 -21 -73
-22 -87 -7 -15 14 -15 28 -5 124 6 59 14 143 18 186 7 83 5 81 71 101 20 6 22
4 18 -26 -6 -48 -28 -292 -27 -298 0 -2 5 -6 11 -8 19 -6 30 36 41 164 16 192
16 191 58 202 21 5 39 7 41 6 2 -2 -1 -45 -7 -96z m-237 0 c-6 -29 -22 -188
-31 -301 -6 -83 -8 -88 -35 -102 -38 -20 -58 -19 -54 3 2 9 6 51 9 92 l5 75
-25 -70 c-14 -38 -30 -84 -35 -102 -9 -30 -39 -50 -58 -39 -4 3 -14 40 -22 82
-15 83 -26 75 -28 -18 -1 -67 -15 -94 -52 -107 -18 -6 -34 -9 -37 -7 -2 3 3
74 12 158 9 84 19 176 22 205 l5 52 50 16 c28 10 52 15 54 14 2 -2 11 -40 20
-84 9 -44 18 -81 20 -83 2 -2 8 11 14 30 5 18 21 65 34 103 23 69 24 70 73 87
65 22 65 22 59 -4z m-425 -5 c0 -5 -4 -46 -9 -93 -6 -47 -17 -159 -26 -250 -9
-91 -19 -191 -23 -224 l-7 -58 -105 -34 c-58 -19 -118 -38 -135 -43 -34 -11
-356 -112 -550 -173 -71 -22 -164 -52 -205 -65 -41 -14 -103 -33 -137 -43
l-63 -19 0 308 0 308 148 48 c221 72 277 89 392 125 58 17 123 38 145 45 22 7
76 25 120 38 238 74 382 120 400 127 26 11 55 12 55 3z m-1110 -79 c0 -3 -43
-68 -95 -144 l-95 -139 -2 -193 -3 -192 -85 -27 c-189 -61 -240 -76 -240 -73
0 2 5 14 11 27 7 16 26 29 53 37 102 31 136 45 136 57 0 18 -49 17 -95 -3 -20
-8 -39 -13 -42 -10 -2 2 6 24 20 48 22 40 29 45 106 70 94 30 96 31 88 52 -5
12 -15 12 -69 -5 -35 -10 -64 -19 -66 -19 -2 0 7 18 19 39 l22 39 -22 28 c-11
14 -21 30 -21 35 0 4 26 15 58 24 31 9 65 18 75 21 18 6 23 29 8 38 -5 3 -43
-5 -85 -19 -42 -14 -80 -25 -84 -25 -4 0 -17 18 -29 39 l-23 40 23 6 c232 67
292 89 292 106 0 19 -32 15 -145 -20 -52 -17 -118 -36 -147 -45 l-52 -15 -25
33 -25 33 82 26 c45 14 123 38 172 53 50 14 128 39 175 55 87 28 110 33 110
23z"/>
<path d="M1737 2277 c-3 -8 1 -14 8 -14 7 0 11 6 8 14 -3 7 -6 13 -8 13 -2 0
-5 -6 -8 -13z"/>
<path d="M1582 2200 c0 -14 2 -19 5 -12 2 6 2 18 0 25 -3 6 -5 1 -5 -13z"/>
<path d="M1130 2840 c-14 -4 -51 -8 -82 -9 -32 -1 -58 -3 -58 -5 0 -17 24 -66
33 -66 7 0 51 9 98 22 84 21 86 21 160 4 40 -10 81 -21 89 -23 27 -8 -54 58
-89 73 -36 15 -110 17 -151 4z"/>
<path d="M1145 2706 c-7 -36 7 -76 28 -76 7 -1 -1 -7 -18 -15 -29 -13 -29 -13
30 -14 43 -1 72 5 100 20 40 21 108 79 101 86 -9 10 -145 33 -188 33 -46 0
-47 -1 -53 -34z m53 -19 c4 -20 -25 -34 -40 -19 -15 15 -1 44 19 40 10 -2 19
-11 21 -21z m112 -7 c0 -5 -2 -10 -4 -10 -2 0 -12 -3 -20 -6 -12 -5 -15 -2
-10 10 7 17 34 22 34 6z"/>
<path d="M2620 2846 c-15 -15 -12 -31 9 -50 35 -31 75 -3 63 45 -4 18 -56 21
-72 5z"/>
<path d="M2540 2765 c-26 -32 13 -81 48 -59 21 14 28 54 10 65 -20 13 -44 11
-58 -6z m15 -24 c0 -16 -3 -27 -7 -24 -13 7 -7 53 6 53 1 0 1 -13 1 -29z"/>
<path d="M2706 2764 c-20 -20 -20 -27 2 -47 22 -20 48 -22 58 -5 4 6 3 9 -2 6
-5 -4 -9 7 -9 22 0 15 4 26 9 23 5 -4 6 -1 2 5 -10 17 -42 15 -60 -4z"/>
<path d="M2277 2680 c5 -37 5 -38 -31 -42 -39 -4 -36 8 4 15 21 4 20 4 -7 6
-27 1 -34 -3 -39 -23 -8 -35 2 -46 42 -46 34 0 35 -1 32 -32 -3 -29 0 -33 22
-33 21 0 26 5 28 33 2 23 8 32 22 32 31 0 50 11 50 29 0 24 -20 41 -46 41 -17
0 -23 7 -26 26 -2 21 -9 28 -29 30 -26 2 -27 1 -22 -36z m96 -37 c-7 -2 -21
-2 -30 0 -10 3 -4 5 12 5 17 0 24 -2 18 -5z"/>
<path d="M2618 2675 c-8 -19 -8 -28 2 -40 14 -17 56 -20 65 -5 3 6 -1 7 -12 4
-13 -4 -13 -2 3 8 32 20 13 57 -29 58 -9 0 -22 -11 -29 -25z"/>
<path d="M2010 1152 c-31 -15 -36 -22 -41 -67 l-5 -50 -5 45 c-4 45 -4 45 -39
42 -65 -7 -66 -8 -84 -174 -9 -84 -19 -177 -21 -207 l-5 -53 37 7 c49 9 53 13
62 71 5 28 9 38 10 22 2 -59 18 -68 79 -47 29 10 31 14 37 77 3 37 12 124 20
194 21 180 23 173 -45 140z"/>
<path d="M1724 1064 l-70 -25 -18 -172 c-9 -95 -19 -189 -22 -209 -2 -21 -1
-38 3 -37 5 0 44 12 88 27 l80 27 3 39 c4 41 0 42 -50 21 -15 -6 -18 -1 -18
33 0 43 25 72 61 72 11 0 18 12 22 37 4 20 4 39 2 42 -3 2 -21 -1 -40 -6 l-36
-11 6 36 c10 58 12 61 49 68 34 6 36 8 36 45 0 46 0 46 -96 13z"/>
<path d="M1530 1001 c-120 -41 -122 -43 -131 -158 -4 -54 -12 -136 -18 -182
-6 -46 -8 -87 -5 -92 9 -15 50 -10 133 17 l81 26 0 47 c0 25 5 75 10 111 5 35
7 66 5 68 -2 2 -24 -4 -49 -13 l-44 -17 -7 -74 c-4 -41 -11 -74 -16 -74 -12 0
-11 66 2 169 l11 86 59 19 c59 18 59 19 59 57 0 22 -3 38 -7 38 -5 -1 -42 -13
-83 -28z"/>
<path d="M1283 923 l-72 -25 -6 -66 c-3 -37 -12 -130 -21 -206 -8 -76 -13
-141 -11 -143 3 -3 158 45 163 50 1 1 5 20 10 41 7 42 4 43 -48 21 -14 -6 -18
-2 -18 18 0 47 18 77 50 83 24 5 31 13 36 41 8 43 2 49 -40 36 l-34 -11 5 37
c8 56 10 59 47 67 34 6 36 8 36 45 0 46 0 46 -97 12z"/>
<path d="M1060 852 l-85 -28 -6 -40 c-4 -22 -12 -100 -18 -174 -7 -74 -14
-150 -17 -167 -8 -41 -4 -41 104 -7 54 17 88 34 97 48 15 24 34 170 37 301 3
73 0 90 -12 92 -8 1 -53 -10 -100 -25z m16 -128 c-3 -31 -9 -89 -13 -130 -4
-49 -10 -75 -20 -78 -10 -4 -13 -1 -9 12 3 9 10 70 17 135 7 64 17 117 22 117
6 0 7 -22 3 -56z"/>
</g>
</svg>
